# File created by Blade
# Date/Time:  Thu Jan 22 15:33:09 2015
#---------------------------------------------------------
:version 1.10
:name HOM
:units
  mass 1.0
  length 1.000000
  angle deg
:documentation
     Acclaim Skeleton File
:root
   axis xyz
   order TX TY TZ RX RY RZ
   position 0.000000 0.000000 0.000000
   orientation 0 0 0
:bonedata
   begin
      id 1
      name RightUpLeg_dum
      direction -1.000000 0.000000 0.000000
      length 3.693983
      axis 0.0 0.0 0.0 xyz
   end
   begin
      id 2
      name LeftUpLeg_dum
      direction 1.000000 0.000000 0.000000
      length 3.693983
      axis 0.0 0.0 0.0 xyz
   end
   begin
      id 3
      name Spine_dum
      direction 0.000000 1.000000 0.000000
      length 2.392956
      axis 0.0 0.0 0.0 xyz
   end
   begin
      id 4
      name RightUpLeg
      direction 0.000000 -1.000000 0.000000
      length 15.795667
      axis 0.0 0.0 0.0 xyz
      dof rx ry rz
   end
   begin
      id 5
      name RightLeg
      direction 0.000000 -1.000000 0.000000
      length 14.766989
      axis 0.0 0.0 0.0 xyz
      dof rx ry rz
   end
   begin
      id 6
      name RightFoot
      direction 0.000000 -0.258819 0.965926
      length 4.962790
      axis 15.0 0.0 0.0 xyz
      dof rx ry rz
   end
   begin
      id 7
      name RightToeBase
      direction 0.000000 0.000000 1.000000
      length 2.952750
      axis 0.0 0.0 0.0 xyz
      dof rx ry rz
   end
   begin
      id 8
      name LeftUpLeg
      direction 0.000000 -1.000000 0.000000
      length 15.795667
      axis 0.0 0.0 0.0 xyz
      dof rx ry rz
   end
   begin
      id 9
      name LeftLeg
      direction 0.000000 -1.000000 0.000000
      length 14.766989
      axis 0.0 0.0 0.0 xyz
      dof rx ry rz
   end
   begin
      id 10
      name LeftFoot
      direction 0.000000 -0.258819 0.965926
      length 4.962790
      axis 15.0 0.0 0.0 xyz
      dof rx ry rz
   end
   begin
      id 11
      name LeftToeBase
      direction 0.000000 0.000000 1.000000
      length 2.952750
      axis 0.0 0.0 0.0 xyz
      dof rx ry rz
   end
   begin
      id 12
      name Spine
      direction 0.000000 1.000000 0.000000
      length 0.000000
      axis 0.0 0.0 0.0 xyz
      dof rx ry rz
   end
   begin
      id 13
      name Spine_dum1
      direction 0.000000 1.000000 0.000000
      length 13.207411
      axis 0.0 0.0 0.0 xyz
   end
   begin
      id 14
      name Spine_dum2
      direction 0.000000 1.000000 0.000000
      length 13.207411
      axis 0.0 0.0 0.0 xyz
   end
   begin
      id 15
      name Spine_dum3
      direction 0.000000 1.000000 0.000000
      length 19.250100
      axis 0.0 0.0 0.0 xyz
   end
   begin
      id 16
      name RightShoulder
      direction -1.000000 0.000000 0.000000
      length 8.140465
      axis 0.0 0.0 90.0 xyz
      dof rx ry rz
   end
   begin
      id 17
      name RightArm
      direction -1.000000 0.000000 0.000000
      length 10.649840
      axis 0.0 0.0 90.0 xyz
      dof rx ry rz
   end
   begin
      id 18
      name RightForeArm
      direction -1.000000 0.000000 0.000000
      length 8.304624
      axis 0.0 0.0 90.0 xyz
      dof ry rz rx
   end
   begin
      id 19
      name RightHand
      direction -1.000000 0.000000 0.000000
      length 0.000000
      axis 0.0 0.0 90.0 xyz
      dof rx ry rz
   end
   begin
      id 20
      name RightHand_dum1
      direction -1.000000 0.000000 0.000000
      length 3.937000
      axis 0.0 0.0 90.0 xyz
   end
   begin
      id 21
      name RightHand_dum2
      direction 0.000000 0.000000 0.000000
      length 0.000000
      axis 0.0 0.0 90.0 xyz
   end
   begin
      id 22
      name RightHandThumb1
      direction 0.000000 0.000000 1.000000
      length 3.937000
      axis 0.0 0.0 90.0 xyz
      dof rx rz ry
   end
   begin
      id 23
      name LeftShoulder
      direction 1.000000 0.000000 0.000000
      length 8.140465
      axis 0.0 0.0 -90.0 xyz
      dof rx ry rz
   end
   begin
      id 24
      name LeftArm
      direction 1.000000 0.000000 0.000000
      length 10.649840
      axis 0.0 0.0 -90.0 xyz
      dof rx ry rz
   end
   begin
      id 25
      name LeftForeArm
      direction 1.000000 0.000000 0.000000
      length 8.304624
      axis 0.0 0.0 -90.0 xyz
      dof ry rz rx
   end
   begin
      id 26
      name LeftHand
      direction 1.000000 0.000000 0.000000
      length 0.000000
      axis 0.0 0.0 -90.0 xyz
      dof rx ry rz
   end
   begin
      id 27
      name LeftHand_dum1
      direction 1.000000 0.000000 0.000000
      length 3.937000
      axis 0.0 0.0 -90.0 xyz
   end
   begin
      id 28
      name LeftHand_dum2
      direction 0.000000 0.000000 0.000000
      length 0.000000
      axis 0.0 0.0 -90.0 xyz
   end
   begin
      id 29
      name LeftHandThumb1
      direction 0.000000 0.000000 1.000000
      length 3.937000
      axis 0.0 0.0 -90.0 xyz
      dof rx rz ry
   end
   begin
      id 30
      name Head
      direction 0.000000 1.000000 0.000000
      length 4.527550
      axis 0.0 0.0 0.0 xyz
      dof rx ry rz
   end
:hierarchy
   begin
      root RightUpLeg_dum LeftUpLeg_dum Spine_dum
      RightUpLeg_dum RightUpLeg
      LeftUpLeg_dum LeftUpLeg
      Spine_dum Spine
      RightUpLeg RightLeg
      RightLeg RightFoot
      RightFoot RightToeBase
      LeftUpLeg LeftLeg
      LeftLeg LeftFoot
      LeftFoot LeftToeBase
      Spine Spine_dum1 Spine_dum2 Spine_dum3
      Spine_dum1 RightShoulder
      Spine_dum2 LeftShoulder
      Spine_dum3 Head
      RightShoulder RightArm
      RightArm RightForeArm
      RightForeArm RightHand
      RightHand RightHand_dum1 RightHand_dum2
      RightHand_dum2 RightHandThumb1
      LeftShoulder LeftArm
      LeftArm LeftForeArm
      LeftForeArm LeftHand
      LeftHand LeftHand_dum1 LeftHand_dum2
      LeftHand_dum2 LeftHandThumb1
   end

# File created by Blade
# Date/Time:  Thu Jan 22 15:33:01 2015
# Frame Rate: 120.000 fps
#------------------------------------------------------
:FULLY-SPECIFIED
:DEGREES
1389
root 8.206241 19.032826 6.094609 296.841056 -86.928977 -520.631489
RightUpLeg -101.307053 -3.082179 15.555120
RightLeg 43.976175 -0.000000 -0.000000
RightFoot 53.307008 20.484624 13.999190
RightToeBase 43.068416 -0.000000 -0.000000
LeftUpLeg -101.397698 3.129854 -14.914445
LeftLeg 47.481252 -0.000000 -0.000000
LeftFoot 43.421368 -15.819525 -18.391260
LeftToeBase 27.727793 -0.000000 -0.000000
Spine 63.112581 4.048866 3.401270
RightShoulder -165.801285 42.942832 171.045665
RightArm 160.441873 47.762322 99.453482
RightForeArm 54.740249 -0.000000 110.935976
RightHand 7.526338 -0.000000 5.039975
RightHandThumb1 -24.326973 -0.000000 -32.862282
LeftShoulder -12.793576 43.080710 22.248858
LeftArm 3.158565 59.368212 -66.614705
LeftForeArm -24.269081 -0.000000 106.852716
LeftHand -16.957634 0.000000 -8.324551
LeftHandThumb1 -26.253704 0.000000 33.147579
Head 91.140150 5.355688 -50.614268
1390
root 8.134443 19.083884 6.121208 306.105353 -86.998508 -527.827906
RightUpLeg -102.976347 -2.837404 15.675298
RightLeg 43.384937 -0.000000 -0.000000
RightFoot 53.076542 20.512130 14.216547
RightToeBase 42.813342 -0.000000 -0.000000
LeftUpLeg -102.849998 2.201495 -14.446098
LeftLeg 46.607961 -0.000000 -0.000000
LeftFoot 43.481735 -15.958641 -18.098073
LeftToeBase 27.527785 -0.000000 -0.000000
Spine 61.046132 3.774630 3.571058
RightShoulder -165.596678 43.396275 171.317761
RightArm 160.949506 47.754130 100.094676
RightForeArm 54.725453 0.000000 110.949547
RightHand 7.506889 0.000000 4.789869
RightHandThumb1 -24.326973 -0.000000 -32.862282
LeftShoulder -12.927053 43.392372 21.921148
LeftArm 3.481511 59.407125 -66.267237
LeftForeArm -24.089279 -0.000000 106.818933
LeftHand -17.050450 -0.000000 -8.293760
LeftHandThumb1 -26.253704 0.000000 33.147579
Head 91.149323 5.419059 -50.930319
1391
root 8.061491 19.128786 6.146817 316.291155 -87.058022 -536.035466
RightUpLeg -104.547559 -2.621380 15.841642
RightLeg 42.790600 -0.000000 -0.000000
RightFoot 52.929425 20.337921 14.582728
RightToeBase 42.465959 -0.000000 -0.000000
LeftUpLeg -104.250628 1.343196 -13.999287
LeftLeg 45.741024 -0.000000 -0.000000
LeftFoot 43.551767 -15.426723 -18.112992
LeftToeBase 27.219630 -0.000000 -0.000000
Spine 59.085750 3.517767 3.849468
RightShoulder -165.378529 43.776453 171.602834
RightArm 161.299973 47.756617 100.637910
RightForeArm 54.892165 -0.000000 111.018420
RightHand 7.542338 -0.000000 4.791544
RightHandThumb1 -24.326973 -0.000000 -32.862282
LeftShoulder -13.011268 43.608071 21.619086
LeftArm 3.602838 59.409430 -66.089908
LeftForeArm -24.117422 -0.000000 106.749713
LeftHand -17.046074 -0.000000 -8.499028
LeftHandThumb1 -26.253704 0.000000 33.147579
Head 91.197925 5.441774 -51.248443
1392
root 8.033282 19.233571 6.207426 330.767238 -86.825070 -546.731368
RightUpLeg -108.178897 -2.172453 15.913328
RightLeg 42.444679 -0.000000 -0.000000
RightFoot 52.613822 20.218790 15.047290
RightToeBase 42.327235 -0.000000 -0.000000
LeftUpLeg -107.449357 -0.278927 -13.148204
LeftLeg 44.804858 -0.000000 -0.000000
LeftFoot 43.650310 -14.708603 -18.171579
LeftToeBase 26.922508 -0.000000 -0.000000
Spine 54.957279 3.040648 4.063931
RightShoulder -164.974455 44.478425 172.027373
RightArm 161.751406 47.812567 101.478900
RightForeArm 54.913099 -0.000000 111.053618
RightHand 7.591251 -0.000000 4.815555
RightHandThumb1 -24.326973 -0.000000 -32.862282
LeftShoulder -13.299070 44.363898 20.879287
LeftArm 4.202550 59.391463 -65.287620
LeftForeArm -23.855122 -0.000000 106.681465
LeftHand -17.146446 -0.000000 -8.465023
LeftHandThumb1 -26.253704 0.000000 33.147579
Head 91.444883 5.910352 -51.687073
1393
root 7.956750 19.274213 6.192926 331.021180 -86.787748 -545.121484
RightUpLeg -109.469688 -1.622246 15.394617
RightLeg 41.691918 -0.000000 -0.000000
RightFoot 52.356766 20.222973 15.222329
RightToeBase 42.053682 -0.000000 -0.000000
LeftUpLeg -108.727464 -0.662231 -13.149025
LeftLeg 43.917081 -0.000000 -0.000000
LeftFoot 43.885887 -14.930064 -17.666612
LeftToeBase 26.866217 -0.000000 -0.000000
Spine 53.176638 3.286656 3.880747
RightShoulder -164.670932 44.775718 172.496434
RightArm 162.043342 47.818870 101.898456
RightForeArm 54.916925 -0.000000 111.094065
RightHand 7.595156 -0.000000 4.976723
RightHandThumb1 -24.326973 -0.000000 -32.862282
LeftShoulder -13.325183 44.499566 20.821992
LeftArm 4.315295 59.403003 -65.063292
LeftForeArm -23.785885 -0.000000 106.630713
LeftHand -17.200865 -0.000000 -8.549889
LeftHandThumb1 -26.253704 0.000000 33.147579
Head 91.618643 5.748220 -51.768389
1394
root 7.859019 19.280770 6.182781 330.877601 -86.740126 -543.872836
RightUpLeg -109.961999 -1.345735 15.027759
RightLeg 40.915203 -0.000000 -0.000000
RightFoot 52.112915 20.062734 15.343361
RightToeBase 41.692381 -0.000000 -0.000000
LeftUpLeg -109.129372 -0.878893 -13.124941
LeftLeg 42.924410 -0.000000 -0.000000
LeftFoot 43.918277 -15.113004 -17.489543
LeftToeBase 26.843811 -0.000000 -0.000000
Spine 52.317204 3.373105 3.710723
RightShoulder -164.561870 44.841851 172.757999
RightArm 162.233163 47.796408 102.157424
RightForeArm 54.863176 -0.000000 111.107072
RightHand 7.556290 -0.000000 5.013240
RightHandThumb1 -24.326973 -0.000000 -32.862282
LeftShoulder -13.505476 44.527053 20.630463
LeftArm 4.500913 59.421096 -64.810714
LeftForeArm -23.682980 -0.000000 106.608212
LeftHand -17.228954 -0.000000 -8.458066
LeftHandThumb1 -26.253704 0.000000 33.147579
Head 91.641113 5.571824 -51.925889
